<svg xmlns="http://www.w3.org/2000/svg" viewBox="0 0 100 100">
  <!-- Modern gradient background -->
  <defs>
    <linearGradient id="bgGradient" x1="0%" y1="0%" x2="100%" y2="100%">
      <stop offset="0%" stop-color="#4776E6" />
      <stop offset="100%" stop-color="#8E54E9" />
    </linearGradient>
  </defs>
  
  <!-- Rounded square background with gradient -->
  <rect x="10" y="10" width="80" height="80" rx="20" fill="url(#bgGradient)" />
  
  <!-- Stylized note paper - slightly tilted for dynamic feel -->
  <path d="M30,25 L65,22 L65,70 L30,73 Z" fill="white" transform="rotate(-3, 47.5, 47.5)" />
  
  <!-- Decorative note lines -->
  <path d="M38,35 L60,34" stroke="#8E54E9" stroke-width="1.5" stroke-linecap="round" transform="rotate(-3, 47.5, 47.5)" />
  <path d="M38,45 L60,44" stroke="#8E54E9" stroke-width="1.5" stroke-linecap="round" transform="rotate(-3, 47.5, 47.5)" />
  <path d="M38,55 L60,54" stroke="#8E54E9" stroke-width="1.5" stroke-linecap="round" transform="rotate(-3, 47.5, 47.5)" />
  
  <!-- Modern share icon - circular arrow -->
  <path d="M72,35 A15,15 0 1,1 60,65" stroke="white" stroke-width="3" stroke-linecap="round" fill="none" />
  <path d="M60,65 L65,70 L70,60" stroke="white" stroke-width="3" stroke-linecap="round" stroke-linejoin="round" fill="none" />
  
  <!-- Corner flourish -->
  <path d="M25,75 C25,65 35,65 35,75" stroke="white" stroke-width="2" fill="none" />
</svg>
